<svg id="圖層_1" data-name="圖層 1" xmlns="http://www.w3.org/2000/svg" viewBox="0 0 270.5 62.56"><defs><style>.cls-1{fill:#fff;}.cls-1,.cls-2{fill-rule:evenodd;}</style></defs><title>icon02</title><path class="cls-1" d="M52,28.66V3.34L42.64,12.7a26,26,0,1,0,8.65,26H43A18,18,0,1,1,37,18.4L26.68,28.66Z"/><path class="cls-2" d="M240.5,0c-16.57,0-30,12.09-30,27s13.43,27,30,27v8s18.26-13.19,21.44-16.12A25.6,25.6,0,0,0,270.5,27C270.5,12.09,257.07,0,240.5,0Zm-16,32a4,4,0,1,1,4-4A4,4,0,0,1,224.5,32Zm16,0a4,4,0,1,1,4-4A4,4,0,0,1,240.5,32Zm16,0a4,4,0,1,1,4-4A4,4,0,0,1,256.5,32Z"/><path class="cls-1" d="M124.26,14h12a2,2,0,0,0,2-2V8a2,2,0,0,0-2-2h-.12a4.21,4.21,0,0,0,.12-1c0-2.76-2.69-5-6-5s-6,2.24-6,5a4.22,4.22,0,0,0,.12,1h-.12a2,2,0,0,0-2,2v4A2,2,0,0,0,124.26,14Zm4-10h4V8h-4Zm20,34a12,12,0,1,0,12,12A12,12,0,0,0,148.26,38Zm7.34,11-7.67,6.39a2.25,2.25,0,0,1-.89.43,1.75,1.75,0,0,1-.61.1,2.4,2.4,0,0,1-1.57-.52,1.67,1.67,0,0,1-.55-.91L142.74,53a1.76,1.76,0,0,1,2.49-2.49l1.14,1.14,6.15-5.13a2.49,2.49,0,0,1,3.07,0A1.6,1.6,0,0,1,155.59,49.06ZM148.26,34a15.94,15.94,0,0,1,6,1.17V12a4,4,0,0,0-4-4h-10v5c0,1.66-.75,3-1.67,3H121.93c-.92,0-1.67-1.34-1.67-3V8h-10a4,4,0,0,0-4,4V56a4,4,0,0,0,4,4h25.52a16,16,0,0,1,12.48-26Z"/></svg>