<svg xmlns="http://www.w3.org/2000/svg" xmlns:xlink="http://www.w3.org/1999/xlink" viewBox="0 0 320.49 150.75"><defs><style>.cls-1{isolation:isolate;}.cls-2{fill:#231815;}.cls-3{fill:url(#未命名漸層_2);}.cls-4{stroke:#1d2087;fill:url(#未命名漸層_20);}.cls-5,.cls-9{fill:none;}.cls-6{opacity:0.15;fill:url(#radial-gradient);}.cls-6,.cls-7,.cls-8,.cls-9{mix-blend-mode:screen;}.cls-7{opacity:0.5;fill:url(#radial-gradient-2);}.cls-8{fill:url(#radial-gradient-3);}.cls-9{stroke:#fff;stroke-miterlimit:10;stroke-width:2px;opacity:0.03;}.cls-10{fill:#00101d;}.cls-11{fill:#004da0;}</style><linearGradient id="未命名漸層_2" x1="90.1" y1="76.66" x2="109.02" y2="95.58" gradientUnits="userSpaceOnUse"><stop offset="0" stop-color="#1dade5"/><stop offset="0.5" stop-color="#fcfdff"/><stop offset="1" stop-color="#1dade5"/></linearGradient><linearGradient id="未命名漸層_20" x1="70.52" y1="-1.39" x2="83.46" y2="11.55" gradientTransform="translate(94.47 163.11) rotate(-90)" gradientUnits="userSpaceOnUse"><stop offset="0" stop-color="#00b8ee"/><stop offset="0.5" stop-color="#fcfdff"/><stop offset="1" stop-color="#00b8ee"/></linearGradient><radialGradient id="radial-gradient" cx="96.71" cy="81.66" r="6.84" gradientUnits="userSpaceOnUse"><stop offset="0" stop-color="#200000"/><stop offset="0.73" stop-color="#9b4121"/><stop offset="1" stop-color="#200000"/></radialGradient><radialGradient id="radial-gradient-2" cx="96.71" cy="81.66" r="3.42" gradientUnits="userSpaceOnUse"><stop offset="0.15" stop-color="#fff"/><stop offset="0.21" stop-color="#e4d2d2"/><stop offset="0.29" stop-color="#c59b9c"/><stop offset="0.36" stop-color="#ad7374"/><stop offset="0.42" stop-color="#9f5b5c"/><stop offset="0.45" stop-color="#9a5253"/><stop offset="0.58" stop-color="#693132"/><stop offset="0.7" stop-color="#411617"/><stop offset="0.79" stop-color="#290606"/><stop offset="0.85" stop-color="#200000"/><stop offset="0.86" stop-color="#240201"/><stop offset="0.86" stop-color="#310803"/><stop offset="0.87" stop-color="#451108"/><stop offset="0.88" stop-color="#621e0e"/><stop offset="0.89" stop-color="#883016"/><stop offset="0.9" stop-color="#b5441f"/><stop offset="0.9" stop-color="#d55326"/><stop offset="0.9" stop-color="#c64c23"/><stop offset="0.91" stop-color="#9a381a"/><stop offset="0.93" stop-color="#752712"/><stop offset="0.94" stop-color="#56190b"/><stop offset="0.95" stop-color="#3e0e06"/><stop offset="0.97" stop-color="#2d0603"/><stop offset="0.98" stop-color="#230101"/><stop offset="1" stop-color="#200000"/></radialGradient><radialGradient id="radial-gradient-3" cx="96.71" cy="81.66" r="2.85" gradientUnits="userSpaceOnUse"><stop offset="0.15" stop-color="#fff"/><stop offset="0.28" stop-color="#c2c2c2"/><stop offset="0.43" stop-color="#888"/><stop offset="0.56" stop-color="#575757"/><stop offset="0.69" stop-color="#313131"/><stop offset="0.81" stop-color="#161616"/><stop offset="0.92" stop-color="#060606"/><stop offset="1"/></radialGradient></defs><title>工作區域 2</title><g class="cls-1"><g id="圖層_2" data-name="圖層 2"><path class="cls-2" d="M11.31,118.55a15.78,15.78,0,0,0,4-9.68V94.25c0-3.12,0-5.67,0-5.67l-4,4L4,99.85a15.78,15.78,0,0,0-4,9.68v14.62c0,3.12,0,5.67,0,5.67l4-4Z"/><circle class="cls-2" cx="46.8" cy="103.88" r="10.22" transform="translate(-59.75 63.51) rotate(-45)"/><path class="cls-2" d="M56.21,141.31a18.52,18.52,0,0,0,2-6.23H36.58V83.48H57.83V74.2c0-6.9-6.22-6-6.22-6h-15V52.87H58.21s0-2.55,0-5.67V36.9a15.77,15.77,0,0,0-4-9.68L33.34,6.36a5.69,5.69,0,0,0-8,0L4.4,27.28A15.77,15.77,0,0,0,.39,37V47.12c0,3.12,0,5.69,0,5.71s1.84-1.77,4-4L25.32,28a5.69,5.69,0,0,1,8,0l9.55,9.55h-17a11.86,11.86,0,0,0-8.4,3.86L4.28,54.6h17V68.17H0v9.56s-.61,5.75,6,5.75H21.27v51.59H0s4.9,15.31,13.91,15.31H43.55a11.49,11.49,0,0,0,2.49-.28,18.74,18.74,0,0,0,9.08-7l.2-.31c.21-.32.4-.65.59-1Z"/><circle class="cls-3" cx="99.56" cy="86.12" r="13.38"/><circle class="cls-4" cx="99.56" cy="86.12" r="9.15"/><line class="cls-5" x1="96.71" y1="81.66" x2="98.64" y2="84.48"/><circle class="cls-5" cx="96.71" cy="81.66" r="2.85"/><circle class="cls-5" cx="96.71" cy="81.66" r="3.42"/><polyline class="cls-5" points="96.71 81.66 96.71 81.97 96.71 81.66 96.71 81.35 96.71 81.66 96.4 81.66 96.71 81.66 97.02 81.66 96.71 81.66 111.49 88.33 96.71 81.66 81.93 75 96.71 81.66 90.04 96.44 96.71 81.66 103.37 66.88 96.71 81.66 98.55 84.51 96.71 81.66 94.86 78.82 96.71 81.66 93.86 83.51 96.71 81.66 99.55 79.82 96.71 81.66 109.32 90.17 96.71 81.66 84.1 73.15 96.71 81.66 88.19 94.27 96.71 81.66 105.22 69.05 96.71 81.66 108.18 89.19 96.71 81.66 85.23 74.14 96.71 81.66 89.18 93.14 96.71 81.66 104.23 70.19 96.71 81.66 92.41 92.29 96.71 81.66 101 71.03 96.71 81.66 86.08 77.37 96.71 81.66 107.33 85.96 96.71 81.66 102.34 97.33 96.71 81.66 91.08 66 96.71 81.66 81.04 87.29 96.71 81.66 112.37 76.03 96.71 81.66 97.77 85.81 96.71 81.66 95.64 77.52 96.71 81.66 92.56 82.73 96.71 81.66 100.85 80.6 96.71 81.66 95.92 96.89 96.71 81.66 97.49 66.43 96.71 81.66 81.48 80.88 96.71 81.66 111.94 82.44 96.71 81.66 94.86 88.67 96.71 81.66 98.55 74.66 96.71 81.66 89.7 79.82 96.71 81.66 103.71 83.51 96.71 81.66 107.77 93.48 96.71 81.66 85.65 69.84 96.71 81.66 84.89 92.72 96.71 81.66 108.53 70.6 96.71 81.66 93.91 92.47 96.71 81.66 99.5 70.86 96.71 81.66 85.9 78.87 96.71 81.66 107.51 84.46 96.71 81.66 92.41 92.68 96.71 81.66 101 70.65 96.71 81.66 85.69 77.36 96.71 81.66 107.72 85.96 96.71 81.66 93.76 91.86 96.71 81.66 99.65 71.46 96.71 81.66 86.5 78.72 96.71 81.66 106.91 84.61 96.71 81.66 96.03 89.24 96.71 81.66 97.39 74.08 96.71 81.66 89.13 80.98 96.71 81.66 104.29 82.34"/><circle class="cls-6" cx="96.71" cy="81.66" r="6.84"/><circle class="cls-7" cx="96.71" cy="81.66" r="3.42"/><circle class="cls-8" cx="96.71" cy="81.66" r="2.85"/><polyline class="cls-9" points="96.71 81.66 96.71 81.97 96.71 81.66 96.71 81.35 96.71 81.66 96.4 81.66 96.71 81.66 97.02 81.66 96.71 81.66 111.49 88.33 96.71 81.66 81.93 75 96.71 81.66 90.04 96.44 96.71 81.66 103.37 66.88 96.71 81.66 98.55 84.51 96.71 81.66 94.86 78.82 96.71 81.66 93.86 83.51 96.71 81.66 99.55 79.82 96.71 81.66 109.32 90.17 96.71 81.66 84.1 73.15 96.71 81.66 88.19 94.27 96.71 81.66 105.22 69.05 96.71 81.66 108.18 89.19 96.71 81.66 85.23 74.14 96.71 81.66 89.18 93.14 96.71 81.66 104.23 70.19 96.71 81.66 92.41 92.29 96.71 81.66 101 71.03 96.71 81.66 86.08 77.37 96.71 81.66 107.33 85.96 96.71 81.66 102.34 97.33 96.71 81.66 91.08 66 96.71 81.66 81.04 87.29 96.71 81.66 112.37 76.03 96.71 81.66 97.77 85.81 96.71 81.66 95.64 77.52 96.71 81.66 92.56 82.73 96.71 81.66 100.85 80.6 96.71 81.66 95.92 96.89 96.71 81.66 97.49 66.43 96.71 81.66 81.48 80.88 96.71 81.66 111.94 82.44 96.71 81.66 94.86 88.67 96.71 81.66 98.55 74.66 96.71 81.66 89.7 79.82 96.71 81.66 103.71 83.51 96.71 81.66 107.77 93.48 96.71 81.66 85.65 69.84 96.71 81.66 84.89 92.72 96.71 81.66 108.53 70.6 96.71 81.66 93.91 92.47 96.71 81.66 99.5 70.86 96.71 81.66 85.9 78.87 96.71 81.66 107.51 84.46 96.71 81.66 92.41 92.68 96.71 81.66 101 70.65 96.71 81.66 85.69 77.36 96.71 81.66 107.72 85.96 96.71 81.66 93.76 91.86 96.71 81.66 99.65 71.46 96.71 81.66 86.5 78.72 96.71 81.66 106.91 84.61 96.71 81.66 96.03 89.24 96.71 81.66 97.39 74.08 96.71 81.66 89.13 80.98 96.71 81.66 104.29 82.34"/><path class="cls-2" d="M155.2,135.08H121.55v-21h15.33l0,0V58h-74v48.35S62.71,114,70.26,114H78.2v21H63.27a24.61,24.61,0,0,1-7.52,15.31H78.89c15.28,0,14.62-14.72,14.62-14.72V114.07h12.74v36.32H139.9c14.24,0,15.31-15.31,15.31-15.31ZM99.78,103.72a17.63,17.63,0,0,1-12.27-5h-9.2l-.06-25.48h9.27a17.66,17.66,0,0,1,24.54,0h9.56V98.76H112A17.63,17.63,0,0,1,99.78,103.72Z"/><path class="cls-2" d="M69.26,52.86h67.66s0-3.16,0-9.45-6.82-5.85-6.82-5.85h-4.66V22.25h11.48V13.87s.35-6.93-7.37-6.93h-22V0H92.27V6.94H62.93V17.19s-.23,5.06,6.48,5.06h5V37.56H62.93v9.76S62.83,52.82,69.26,52.86ZM89.72,22.25h20.41V37.56H89.72Z"/></g><g id="圖層_4" data-name="圖層 4"><path class="cls-2" d="M267.09,87.93h0V83.07c0-4.83-5.33-4.66-5.33-4.66H251.23V61.32h-9.52v17.1h-6.34v9.52h6.34v54.38s-.18,4.56,3.9,1.18c4.4-3.65,12-12,12-12v19h5.08c4.94,0,4.44-5.43,4.44-5.43Zm-9.52,30.13-6.34,6.34V87.93h6.34Z"/><path class="cls-2" d="M313.09,105V70.83h7.4V65.35c0-3.73-4.76-4-4.76-4h-2.64V58.24h-9.52v3.07H283V58.24h-9.52v3.07h-7.34v4.9s-.51,4.62,3.66,4.62h3.68V99.39s-.37,5.69,5,5.69H283V87.93h20.62v0h0v7.56h-11.1s7.83,0,3.65,0a9.13,9.13,0,0,0-6.64,3L283,105.08h5.55v3.82H267.09v9.52h21.41v32.1h5.28s4.23.91,4.23-5.1v-27h22.46v-4.71c0-5-5.51-4.81-5.51-4.81H298V105Zm-9.52-26.62H283V70.83h20.62Z"/><path class="cls-2" d="M227.05,61.32H204.9V58.24h-9.52v3.08H178.27V66a4.33,4.33,0,0,0,4.67,4.82h12.44V74h-27.3v29.07s-.1,5.82,5.28,5.82h22v3.17h-27.3v4.57s-.64,4.95,5.37,4.95h41v3.17H185.54v4.41s-.35,5.11,4.71,5.11h24.17V141H202.93c-4.14,0-5.27,1.83-5.27,1.83L190,150.49v0h29.07a4.5,4.5,0,0,0,4.87-4.83v-11.4h8.26V129a4.12,4.12,0,0,0-4.19-4.27h-4.07v-3.17h8.26v-5.11c0-4.68-5.07-4.41-5.07-4.41H204.9V108.9h27.3V74H204.9V70.83h27.3V66C232.2,61.51,227.05,61.32,227.05,61.32ZM195.39,99.38h-6.23c-2.52,0-3.32,1.29-3.32,1.29l-8.23,8.23V96.21h17.78Zm0-12.69H177.61V83.52h17.78Zm27.3,12.69H204.9V96.21h17.78ZM204.92,83.52h17.76v3.17H204.9V83.52Z"/><path class="cls-2" d="M180.34,126.66l-5.49,5.49a7.89,7.89,0,0,0-2,4.84v10.59c0,1.56,0,2.83,0,2.83l2-2,5.49-5.49a7.89,7.89,0,0,0,2-4.84V127.49c0-1.56,0-2.83,0-2.83Z"/><path class="cls-2" d="M162.91,60.25l-14,14a7.89,7.89,0,0,0-2,4.84v7.7c0,1.56,0,2.85,0,2.86s.93-.88,2-2l4.4-4.4c1.1-1.1,2-.73,2,.83v66.7h4.94s4.58.36,4.58-5.12V61.08C164.92,59.52,164,59.14,162.91,60.25Z"/><path class="cls-2" d="M279.35,123.7l-5.49,5.49a7.89,7.89,0,0,0-2,4.84v13.89c0,1.56,0,2.83,0,2.83l2-2,5.49-5.49a7.89,7.89,0,0,0,2-4.84V124.53c0-1.56,0-2.83,0-2.83Z"/><path class="cls-2" d="M313.71,123.7l-5.49,5.49a7.89,7.89,0,0,0-2,4.84v13.89c0,1.56,0,2.83,0,2.83l2-2,5.49-5.49a7.89,7.89,0,0,0,2-4.84V124.53c0-1.56,0-2.83,0-2.83Z"/><path class="cls-10" d="M214.94,26.79h17.39v2.75H222v2.89h9.68v2.75H222v3.29h10.78v2.75H214.94Z"/><path class="cls-10" d="M236,26.79h10.48c7,0,10,1.74,10,6.75,0,5.23-1.39,7.68-10.69,7.68H236Zm7.07,11.92H245c3.28,0,4.42-.63,4.42-4.95,0-3.52-.59-4.46-4.34-4.46h-2Z"/><path class="cls-10" d="M260.29,26.79h7.07V41.21h-7.07Z"/><path class="cls-10" d="M277.42,26.79h8.84l7.49,14.42h-7.33l-1.09-2.75h-7.2l-1.05,2.75h-7.33Zm4.29,2.63h-.08l-2.48,6.42h5.14Z"/><path class="cls-11" d="M215.32,7.79h7.07V22.22h-7.07Z"/><path class="cls-11" d="M226.9,7.79h11.87c6,0,8.08,1.78,8.08,3.76s-1.77,3.13-5.05,3.52v0c4.5.3,4.76,1.66,4.84,3.6.13,2.85.34,3.13,1.35,3.33v.18h-7.62c-.55-.48-.76-1.29-.76-2.93,0-2.51-.71-3-2.95-3H234v6H226.9ZM234,13.87h2.19c2.86,0,3.62-1,3.62-1.88,0-1.09-.84-1.82-3.66-1.82H234Z"/><path class="cls-11" d="M251.06,7.79h11.87c6,0,8.08,1.78,8.08,3.76s-1.77,3.13-5.05,3.52v0c4.5.3,4.76,1.66,4.84,3.6.13,2.85.34,3.13,1.35,3.33v.18h-7.62c-.55-.48-.76-1.29-.76-2.93,0-2.51-.72-3-2.95-3h-2.69v6h-7.07Zm7.07,6.08h2.19c2.86,0,3.62-1,3.62-1.88,0-1.09-.84-1.82-3.66-1.82h-2.15Z"/><path class="cls-11" d="M285.12,22.5c-9.3,0-10.57-2.91-10.57-7.5s1.26-7.5,10.57-7.5c10,0,10.57,3.5,10.57,7.5S295.14,22.5,285.12,22.5Zm0-2.26c2.86,0,3.28-1.27,3.28-5.23s-.42-5.23-3.28-5.23-3.2,1.27-3.2,5.23S282.3,20.24,285.08,20.24Z"/><path class="cls-11" d="M299.39,7.79h11.87c6,0,8.08,1.78,8.08,3.76s-1.77,3.13-5.05,3.52v0c4.5.3,4.76,1.66,4.84,3.6.13,2.85.34,3.13,1.35,3.33v.18h-7.62c-.55-.48-.76-1.29-.76-2.93,0-2.51-.72-3-2.95-3h-2.7v6h-7.07Zm7.07,6.08h2.19c2.86,0,3.62-1,3.62-1.88,0-1.09-.84-1.82-3.66-1.82h-2.15Z"/><path class="cls-11" d="M189.4,24.53l-1.74-9.37h-.08v9.37h-6.32V7.76h10.36l2.83,16.78Zm13.25,0V15.16h-.08l-1.65,9.37h-4.66L199,7.76h10.23V24.53Z"/><path class="cls-10" d="M181.26,24.53h6.31V41.2h-6.31ZM192.5,41.2l-3.1-16.67h5l.88,5.19h.08l.85-5.19h4.66L198,41.2Zm10.15-16.67h6.57V41.2h-6.57Z"/></g></g></svg>