<?xml version="1.0" encoding="UTF-8" standalone="no"?>
<svg width="96px" height="30px" viewBox="0 0 96 30" version="1.1" xmlns="http://www.w3.org/2000/svg" xmlns:xlink="http://www.w3.org/1999/xlink">
    <!-- Generator: sketchtool 39.1 (31720) - http://www.bohemiancoding.com/sketch -->
    <title>204DE902-0FFF-46CA-97FA-2057F3BE2665</title>
    <desc>Created with sketchtool.</desc>
    <defs>
        <polygon id="path-1" points="29.4101 0 0.0001 0 0.0001 29.9996 29.4101 29.9996"></polygon>
        <polygon id="path-3" points="0.4013 8 8.6163 8 8.6163 0.0303 0.4013 0.0303 0.4013 8"></polygon>
        <polygon id="path-5" points="0.089 8 9.505 8 9.505 0.0301 0.089 0.0301 0.089 8"></polygon>
        <polygon id="path-7" points="0 30 95.975 30 95.975 0 0 0"></polygon>
    </defs>
    <g id="Symbols" stroke="none" stroke-width="1" fill="none" fill-rule="evenodd">
        <g id="logo-/-v2">
            <g id="logo">
                <g id="Group-3">
                    <mask id="mask-2" fill="white">
                        <use xlink:href="#path-1"></use>
                    </mask>
                    <g id="Clip-2"></g>
                    <path d="M11.6891,26.9046 L7.3921,26.9046 L7.3921,16.4736 L11.6891,16.4736 L11.6891,13.3786 L7.3921,13.3786 L7.3921,10.2836 L11.6891,10.2836 L11.6891,10.2806 L11.6891,10.2806 L11.6891,5.9096 L5.8501,0.0716 L0.0001,5.9226 L0.0001,10.2686 L0.0151,10.2836 L5.8501,4.4476 L8.5921,7.1896 L4.2971,7.1896 L4.2971,13.3786 L0.0001,13.3786 L0.0001,16.4736 L4.2971,16.4736 L4.2971,26.9046 L0.0001,26.9046 L0.0001,29.9996 L8.6001,29.9996 L11.6891,26.9106 L11.6891,26.9046 Z M18.1371,7.1896 L22.2631,7.1896 L22.2631,4.0946 L18.1371,4.0946 L18.1371,7.1896 Z M27.6791,7.1896 L25.3581,7.1896 L25.3581,4.0946 L27.6791,4.0946 L27.6791,0.9996 L21.7471,0.9996 L21.7471,-0.0004 L18.6521,-0.0004 L18.6521,0.9996 L12.7211,0.9996 L12.7211,4.0946 L15.0421,4.0946 L15.0421,7.1896 L12.7211,7.1896 L12.7211,10.2846 L27.6791,10.2846 L27.6791,7.1896 Z M7.9971,19.1356 C7.1901,19.9426 7.1901,21.2506 7.9971,22.0576 C8.8041,22.8646 10.1121,22.8646 10.9191,22.0576 C11.7251,21.2506 11.7251,19.9426 10.9191,19.1356 C10.1121,18.3296 8.8041,18.3296 7.9971,19.1356 L7.9971,19.1356 Z M3.0951,17.5046 L3.0881,17.5046 L0.0001,20.5926 L0.0001,25.8406 L0.0071,25.8406 L3.0951,22.7526 L3.0951,17.5046 Z M24.5721,26.9046 L24.5721,22.6576 L27.6791,22.6576 L27.6791,11.3156 L21.7471,11.3156 L21.7471,12.7876 L21.7501,12.7846 L21.7501,14.4106 L24.5841,14.4106 L24.5841,19.5626 L18.9011,19.5626 L18.9011,19.5586 L18.8991,19.5626 L18.8971,19.5626 L18.8931,19.5656 L18.8931,19.5676 L15.8191,22.6416 L15.8161,22.6416 L15.8161,14.4106 L18.6521,14.4106 L21.7471,11.3156 L12.7201,11.3156 L12.7201,22.6526 L15.8071,22.6516 L15.8071,26.9046 L12.7201,26.9046 L12.7201,26.9136 L9.6341,29.9996 L12.7291,29.9996 L18.9011,29.9996 L18.9011,22.6576 L21.4771,22.6576 L21.4771,29.9996 L26.1641,29.9996 C27.3431,29.0736 28.4291,28.0366 29.4101,26.9046 L24.5721,26.9046 Z" id="Fill-1" fill="#000000" mask="url(#mask-2)"></path>
                </g>
                <polygon id="Fill-4" fill="#004EA2" points="16.8478 21.6109 18.8928 19.5659 18.8928 19.5619 18.8968 19.5619 21.7498 16.7079 21.7498 14.4109 21.7468 14.4109 21.7468 12.7879 16.8478 17.6869"></polygon>
                <g id="Group-8" transform="translate(47.000000, 22.000000)">
                    <mask id="mask-4" fill="white">
                        <use xlink:href="#path-3"></use>
                    </mask>
                    <g id="Clip-7"></g>
                    <polygon id="Fill-6" fill="#221713" mask="url(#mask-4)" points="0.4013 0.0303 8.4033 0.0303 8.4033 1.5483 3.6563 1.5483 3.6563 3.1443 8.1123 3.1443 8.1123 4.6623 3.6563 4.6623 3.6563 6.4823 8.6163 6.4823 8.6163 8.0003 0.4013 8.0003"></polygon>
                </g>
                <g id="Group-11" transform="translate(57.000000, 22.000000)">
                    <mask id="mask-6" fill="white">
                        <use xlink:href="#path-5"></use>
                    </mask>
                    <g id="Clip-10"></g>
                    <path d="M3.344,6.6161 L4.216,6.6161 C5.727,6.6161 6.25,6.2701 6.25,3.8811 C6.25,1.9391 5.979,1.4141 4.254,1.4141 L3.344,1.4141 L3.344,6.6161 Z M0.089,0.0301 L4.913,0.0301 C8.13,0.0301 9.505,0.9901 9.505,3.7591 C9.505,6.6491 8.866,8.0001 4.584,8.0001 L0.089,8.0001 L0.089,0.0301 Z" id="Fill-9" fill="#221713" mask="url(#mask-6)"></path>
                </g>
                <mask id="mask-8" fill="white">
                    <use xlink:href="#path-7"></use>
                </mask>
                <g id="Clip-13"></g>
                <polygon id="Fill-12" fill="#221713" mask="url(#mask-8)" points="68.269 30 71.524 30 71.524 22.03 68.269 22.03"></polygon>
                <path d="M78.1308,23.4814 L78.0918,23.4814 L76.9488,27.0304 L79.3128,27.0304 L78.1308,23.4814 Z M76.1548,22.0304 L80.2228,22.0304 L83.6718,30.0004 L80.3008,30.0004 L79.7968,28.4824 L76.4838,28.4824 L75.9998,30.0004 L72.6288,30.0004 L76.1548,22.0304 Z" id="Fill-14" fill="#221713" mask="url(#mask-8)"></path>
                <polygon id="Fill-15" fill="#004EA2" mask="url(#mask-8)" points="47.576 19.509 50.831 19.509 50.831 11.539 47.576 11.539"></polygon>
                <path d="M56.159,14.8989 L57.166,14.8989 C58.484,14.8989 58.833,14.3299 58.833,13.8609 C58.833,13.2579 58.445,12.8559 57.147,12.8559 L56.159,12.8559 L56.159,14.8989 Z M52.904,11.5389 L58.368,11.5389 C61.138,11.5389 62.088,12.5209 62.088,13.6149 C62.088,14.7759 61.274,15.3459 59.763,15.5569 L59.763,15.5799 C61.836,15.7479 61.952,16.4949 61.991,17.5669 C62.049,19.1409 62.146,19.2969 62.611,19.4089 L62.611,19.5089 L59.104,19.5089 C58.852,19.2409 58.755,18.7949 58.755,17.8909 C58.755,16.5059 58.426,16.2159 57.399,16.2159 L56.159,16.2159 L56.159,19.5089 L52.904,19.5089 L52.904,11.5389 Z" id="Fill-16" fill="#004EA2" mask="url(#mask-8)"></path>
                <path d="M67.2807,14.8989 L68.2877,14.8989 C69.6057,14.8989 69.9537,14.3299 69.9537,13.8609 C69.9537,13.2579 69.5667,12.8559 68.2687,12.8559 L67.2807,12.8559 L67.2807,14.8989 Z M64.0257,11.5389 L69.4887,11.5389 C72.2597,11.5389 73.2087,12.5209 73.2087,13.6149 C73.2087,14.7759 72.3957,15.3459 70.8837,15.5569 L70.8837,15.5799 C72.9577,15.7479 73.0737,16.4949 73.1127,17.5669 C73.1707,19.1409 73.2677,19.2969 73.7317,19.4089 L73.7317,19.5089 L70.2257,19.5089 C69.9737,19.2409 69.8767,18.7949 69.8767,17.8909 C69.8767,16.5059 69.5477,16.2159 68.5207,16.2159 L67.2807,16.2159 L67.2807,19.5089 L64.0257,19.5089 L64.0257,11.5389 Z" id="Fill-17" fill="#004EA2" mask="url(#mask-8)"></path>
                <path d="M79.6805,18.4149 C80.9985,18.4149 81.1925,17.7119 81.1925,15.5239 C81.1925,13.3369 80.9985,12.6329 79.6805,12.6329 C78.4025,12.6329 78.2085,13.3369 78.2085,15.5239 C78.2085,17.7119 78.4025,18.4149 79.6805,18.4149 M79.7005,19.6649 C75.4185,19.6649 74.8365,18.0579 74.8365,15.5239 C74.8365,12.9899 75.4185,11.3829 79.7005,11.3829 C84.3115,11.3829 84.5635,13.3139 84.5635,15.5239 C84.5635,17.7339 84.3115,19.6649 79.7005,19.6649" id="Fill-18" fill="#004EA2" mask="url(#mask-8)"></path>
                <path d="M89.5233,14.8989 L90.5313,14.8989 C91.8483,14.8989 92.1973,14.3299 92.1973,13.8609 C92.1973,13.2579 91.8093,12.8559 90.5113,12.8559 L89.5233,12.8559 L89.5233,14.8989 Z M86.2683,11.5389 L91.7323,11.5389 C94.5023,11.5389 95.4523,12.5209 95.4523,13.6149 C95.4523,14.7759 94.6383,15.3459 93.1273,15.5569 L93.1273,15.5799 C95.2003,15.7479 95.3163,16.4949 95.3553,17.5669 C95.4133,19.1409 95.5103,19.2969 95.9753,19.4089 L95.9753,19.5089 L92.4683,19.5089 C92.2163,19.2409 92.1193,18.7949 92.1193,17.8909 C92.1193,16.5059 91.7903,16.2159 90.7633,16.2159 L89.5233,16.2159 L89.5233,19.5089 L86.2683,19.5089 L86.2683,11.5389 Z" id="Fill-19" fill="#004EA2" mask="url(#mask-8)"></path>
                <path d="M41.7422,20.7884 L41.7422,15.6114 L41.7032,15.6114 L40.9432,20.7884 L38.7992,20.7884 L40.0562,11.5234 L44.7652,11.5234 L44.7652,20.7884 L41.7422,20.7884 Z M35.6472,20.7884 L34.8452,15.6114 L34.8062,15.6114 L34.8062,20.7884 L31.8992,20.7884 L31.8992,11.5234 L36.6662,11.5234 L37.9682,20.7884 L35.6472,20.7884 Z" id="Fill-20" fill="#004EA2" mask="url(#mask-8)"></path>
                <path d="M41.743,29.994 L44.766,29.994 L44.766,20.788 L41.743,20.788 L41.743,29.994 Z M37.073,29.995 L35.647,20.788 L37.968,20.788 L38.371,23.657 L38.41,23.657 L38.799,20.788 L40.943,20.788 L39.592,29.995 L37.073,29.995 Z M31.899,29.994 L34.806,29.994 L34.806,20.788 L31.899,20.788 L31.899,29.994 Z" id="Fill-21" fill="#221713" mask="url(#mask-8)"></path>
            </g>
        </g>
    </g>
</svg>